PathFileType	4	(X/Y/Z)	s05c0001.trc
DataRate	CameraRate	NumFrames	NumMarkers	Units	OrigDataRate	OrigDataStartFrame	OrigNumFrames
200	200	6	49	mm	200	250	2000
Frame#	Time	racr			lacr			c7			jug			rlel			rdr			llel			ldr			s2			lic			ric			lasi			rasi			rpsi			lpsi			rgt			lgt			rth1			rth2			rth3			rth4			rlfc			rmfc			rsh1			rsh2			rsh3			rsh4			rlmal			rmmal			rcal			rtoe			rmt5			rmt1			lth1			lth2			lth4			lth3			llfc			lmfc			lsh1			lsh2			lsh3			lsh4			llmal			lmmal			lcal			ltoe			lmt1			lmt5			
		X1	Y1	Z1	X2	Y2	Z2	X3	Y3	Z3	X4	Y4	Z4	X5	Y5	Z5	X6	Y6	Z6	X7	Y7	Z7	X8	Y8	Z8	X9	Y9	Z9	X10	Y10	Z10	X11	Y11	Z11	X12	Y12	Z12	X13	Y13	Z13	X14	Y14	Z14	X15	Y15	Z15	X16	Y16	Z16	X17	Y17	Z17	X18	Y18	Z18	X19	Y19	Z19	X20	Y20	Z20	X21	Y21	Z21	X22	Y22	Z22	X23	Y23	Z23	X24	Y24	Z24	X25	Y25	Z25	X26	Y26	Z26	X27	Y27	Z27	X28	Y28	Z28	X29	Y29	Z29	X30	Y30	Z30	X31	Y31	Z31	X32	Y32	Z32	X33	Y33	Z33	X34	Y34	Z34	X35	Y35	Z35	X36	Y36	Z36	X37	Y37	Z37	X38	Y38	Z38	X39	Y39	Z39	X40	Y40	Z40	X41	Y41	Z41	X42	Y42	Z42	X43	Y43	Z43	X44	Y44	Z44	X45	Y45	Z45	X46	Y46	Z46	X47	Y47	Z47	X48	Y48	Z48	X49	Y49	Z49	
250	1.2500	268.591919	1528.541504	347.601318	256.083679	1534.584595	1.193437	202.366180	1570.950684	170.344910	345.671204	1484.018433	169.454269	236.776154	1282.355225	533.098022	306.323334	1137.762207	742.041504	201.625839	1291.394531	-194.074585	233.691528	1155.617065	-431.346741	178.564362	1035.696045	180.572311	319.977051	1095.106934	30.880306	322.873932	1076.433105	316.545319	372.887726	1029.401978	63.019749	379.523285	1020.207886	284.414764	202.321274	1068.141602	223.848175	199.688904	1072.140625	134.616699	273.562897	923.197876	334.522125	245.958145	953.802917	10.295160	276.652252	824.894775	350.725952	288.473114	735.915222	349.794922	253.952118	655.910645	338.004456	324.959198	732.190735	341.149811	256.319397	507.436707	312.258575	248.976471	506.703003	211.302521	202.984238	410.142303	339.915192	218.130035	322.531097	330.865112	190.164032	242.214355	323.608459	250.479721	323.023987	308.092255	187.223877	109.627602	305.757233	212.938660	124.596695	227.833832	136.821793	62.430004	249.237823	424.711212	80.987885	309.434998	317.322174	44.867729	355.983704	350.603638	47.176868	242.561981	263.075897	821.965027	-10.914646	285.183563	739.167725	-4.828743	321.196838	738.892090	7.325181	259.719788	652.403015	6.201008	247.190063	516.817932	38.890129	240.015900	509.173859	138.844070	195.979904	400.166931	12.836217	210.920776	314.106842	22.915831	179.305603	231.156906	27.222057	243.179199	313.863647	43.443691	183.258179	108.858566	41.875336	211.893036	127.608574	115.198730	136.937897	57.419041	94.053391	425.066071	79.363251	39.361252	351.280151	48.182251	106.039101	312.855347	38.242233	-5.443357	
251	1.2550	268.590179	1528.543457	347.612396	256.071198	1534.580688	1.197806	202.347168	1570.937134	170.349930	345.680603	1484.034424	169.445557	236.760315	1282.356689	533.089661	306.316193	1137.782227	742.061035	201.608826	1291.386597	-194.078003	233.682739	1155.618530	-431.344543	178.580276	1035.696777	180.568695	320.001587	1095.110718	30.876371	322.847748	1076.430908	316.563324	372.899445	1029.408691	63.038361	379.507812	1020.205505	284.432922	202.331070	1068.133667	223.850418	199.692184	1072.141235	134.622223	273.543793	923.198181	334.534698	245.966507	953.804321	10.308782	276.655853	824.902527	350.745728	288.469116	735.908997	349.796875	253.967484	655.918518	338.006256	324.950226	732.192017	341.147644	256.321228	507.424744	312.264465	248.962540	506.700989	211.311707	202.991074	410.144287	339.920441	218.136887	322.522125	330.875183	190.163666	242.195831	323.607819	250.480316	323.025146	308.098145	187.225708	109.645828	305.752289	212.942780	124.602417	227.816833	136.818527	62.439423	249.232758	424.713837	80.985748	309.439056	317.331573	44.873272	355.996857	350.589661	47.188099	242.542328	263.076263	821.976257	-10.913033	285.192871	739.171509	-4.821712	321.200470	738.913818	7.304938	259.726257	652.414429	6.186038	247.190369	516.819885	38.891693	240.042450	509.151154	138.845581	195.984726	400.175018	12.841660	210.938507	314.095245	22.911804	179.310379	231.173386	27.207890	243.178833	313.853546	43.463219	183.247559	108.862640	41.869740	211.911392	127.599678	115.197716	136.940094	57.420341	94.069611	425.063507	79.357658	39.370598	351.275665	48.183399	106.060097	312.862091	38.239208	-5.442799	
252	1.2600	268.588135	1528.553711	347.614441	256.062103	1534.589844	1.199848	202.328232	1570.940430	170.382538	345.676025	1484.033936	169.460480	236.741989	1282.367554	533.104675	306.322540	1137.798340	742.073242	201.599274	1291.381104	-194.071014	233.687454	1155.614868	-431.333435	178.570679	1035.677856	180.586746	319.984161	1095.119263	30.885300	322.890350	1076.426392	316.555481	372.898315	1029.416016	63.043156	379.526428	1020.218201	284.437531	202.317673	1068.142334	223.857574	199.693039	1072.159668	134.620102	273.558350	923.197632	334.536926	245.964905	953.803162	10.305975	276.646301	824.893372	350.738220	288.452362	735.897339	349.797943	253.961594	655.904724	338.016022	324.945282	732.189880	341.151184	256.406616	507.501556	312.303436	248.978287	506.702393	211.307968	202.992752	410.147247	339.923370	218.148895	322.519073	330.866608	190.164017	242.198380	323.613556	250.460876	323.015594	308.100128	187.223007	109.641304	305.757721	212.936584	124.601013	227.832504	136.813263	62.438168	249.223892	424.711151	80.985825	309.439697	317.328308	44.868843	355.994385	350.587585	47.189518	242.534515	263.088440	821.968323	-10.899945	285.198853	739.187134	-4.801064	321.213379	738.908936	7.325833	259.732391	652.405518	6.213594	247.211685	516.822205	38.892498	240.054260	509.142761	138.863174	196.013321	400.171509	12.845763	210.945526	314.090332	22.934620	179.314194	231.177170	27.208525	243.193619	313.865143	43.443497	183.254395	108.851173	41.872013	211.915665	127.599785	115.203064	136.943726	57.419659	94.070610	425.078339	79.351746	39.371277	351.282471	48.173206	106.039131	312.854370	38.250141	-5.440601	
253	1.2650	268.585724	1528.558960	347.616791	256.081970	1534.596191	1.195346	202.351471	1570.937012	170.321671	345.666534	1484.037109	169.465973	236.735504	1282.405518	533.113098	306.301514	1137.813843	742.099976	201.604141	1291.379761	-194.061737	233.686401	1155.608154	-431.319550	178.574966	1035.668213	180.584991	319.987488	1095.129272	30.892992	322.875549	1076.431519	316.573975	372.909546	1029.417480	63.054432	379.502197	1020.211060	284.440674	202.328506	1068.148804	223.849930	199.695053	1072.148560	134.619019	273.561493	923.192993	334.531494	245.968033	953.809265	10.298009	276.645996	824.897400	350.757172	288.448608	735.906677	349.801147	253.956329	655.898743	338.013367	324.935791	732.204712	341.180389	256.334686	507.437592	312.270966	248.984039	506.718689	211.312759	202.977859	410.150665	339.921326	218.147385	322.528625	330.888824	190.170319	242.214050	323.606018	250.481689	323.017670	308.110687	187.223999	109.646622	305.755585	212.936081	124.601776	227.832169	136.815170	62.419224	249.240295	424.722839	80.984688	309.446381	317.340576	44.881516	355.975525	350.599335	47.199539	242.565094	263.104309	821.975647	-10.895934	285.209961	739.182129	-4.784004	321.222534	738.914490	7.341679	259.740631	652.416687	6.212582	247.211700	516.828796	38.902950	240.056091	509.149628	138.846436	196.017715	400.178314	12.847417	210.943451	314.099976	22.928820	179.315384	231.196381	27.217289	243.200378	313.849915	43.465477	183.259598	108.861916	41.873245	211.927490	127.558578	115.211761	136.943329	57.419281	94.077461	425.077942	79.352859	39.367092	351.262054	48.175785	106.050270	312.848328	38.250553	-5.441926	
254	1.2700	268.579102	1528.567627	347.632019	256.065704	1534.596680	1.204180	202.340500	1570.950439	170.339157	345.671112	1484.047729	169.456131	236.738113	1282.405029	533.133972	306.289978	1137.828491	742.109558	201.589813	1291.380615	-194.062714	233.680710	1155.626465	-431.325928	178.567368	1035.679932	180.585571	320.007080	1095.117920	30.896870	322.868225	1076.437988	316.588013	372.906158	1029.408569	63.055187	379.504333	1020.238159	284.455444	202.333664	1068.159302	223.862915	199.691269	1072.152222	134.623825	273.536438	923.198120	334.539490	245.975525	953.810364	10.306256	276.632538	824.896423	350.761902	288.458527	735.892273	349.812531	253.959274	655.906433	338.035217	324.946991	732.199219	341.170898	256.312408	507.427948	312.280182	248.985260	506.692841	211.313873	202.972397	410.143982	339.927124	218.147537	322.514862	330.873383	190.164536	242.205612	323.624878	250.478668	323.007690	308.095245	187.222260	109.634918	305.750244	212.941147	124.604195	227.818680	136.821030	62.413670	249.242447	424.721039	80.992531	309.449554	317.317444	44.865044	355.982513	350.599304	47.194050	242.558701	263.096802	821.986877	-10.891533	285.209076	739.184021	-4.817065	321.222687	738.908813	7.340930	259.743530	652.416565	6.196803	247.208511	516.822815	38.901085	240.063141	509.144958	138.857224	196.018845	400.176208	12.838273	210.949844	314.104736	22.924732	179.320724	231.175385	27.214136	243.189423	313.870300	43.455013	183.248367	108.858070	41.875126	211.927963	127.586411	115.207344	136.954605	57.411640	94.067398	425.063690	79.347763	39.368488	351.255981	48.168461	106.054802	312.867828	38.247078	-5.440543	
255	1.2750	268.579407	1528.570923	347.631714	256.062622	1534.596436	1.199066	202.313522	1570.926758	170.359299	345.655151	1484.045532	169.460449	236.753204	1282.322754	533.053162	306.292542	1137.833374	742.121399	201.587067	1291.364380	-194.029572	233.673462	1155.606812	-431.316284	178.564423	1035.689575	180.591263	320.015991	1095.119751	30.898371	322.856384	1076.431763	316.581787	372.894409	1029.407349	63.063835	379.501617	1020.231750	284.456543	202.307251	1068.145630	223.864410	199.699203	1072.141846	134.631439	273.534912	923.195801	334.550415	245.969330	953.820801	10.322616	276.632599	824.892639	350.763275	288.452209	735.902588	349.810577	253.942780	655.916016	338.020691	324.922485	732.192383	341.170624	256.399048	507.501801	312.311707	248.997269	506.717773	211.325241	202.982895	410.136292	339.916260	218.134827	322.510803	330.880280	190.159470	242.199524	323.600311	250.472000	323.017853	308.109436	187.226624	109.642464	305.748749	212.947861	124.592979	227.826523	136.823257	62.414131	249.226135	424.708649	80.994247	309.449341	317.337769	44.865643	355.991974	350.592072	47.179420	242.545547	263.113007	821.989014	-10.887914	285.220795	739.172485	-4.762829	321.226746	738.920715	7.337379	259.751312	652.428528	6.209258	247.228134	516.814819	38.896755	240.072037	509.144287	138.854462	196.023315	400.175323	12.840564	210.955612	314.090820	22.927265	179.327454	231.195572	27.217373	243.201599	313.847168	43.469494	183.263016	108.853149	41.869099	211.917969	127.601265	115.206978	136.930267	57.417027	94.066704	425.072998	79.350777	39.368687	351.280090	48.159763	106.049210	312.845581	38.243954	-5.449048	
